<svg width="184" height="40" viewBox="0 0 184 40" fill="none" xmlns="http://www.w3.org/2000/svg">
<path fill-rule="evenodd" clip-rule="evenodd" d="M15.9467 1.07245C15.6868 0.0754634 14.2713 0.0754567 14.0114 1.07244L6.82757 28.6295H3.54882C3.09629 28.6295 2.70017 28.9334 2.58295 29.3704L0.0699594 38.741C-0.100381 39.3761 0.378214 40 1.03583 40H28.9699C29.6126 40 30.0884 39.4024 29.9444 38.776L27.7905 29.4054C27.6861 28.9513 27.2818 28.6295 26.8159 28.6295H23.1306L15.9467 1.07245Z" fill="#0063D7"/>
<path d="M38.12 14.8C38.88 14.88 39.9 14.94 40.6 14.94H50.68C51.26 14.94 52.08 14.9 52.42 14.88C52.4 15.36 52.36 16.14 52.36 16.74V27.1C52.36 27.8 52.42 28.84 52.46 29.46H49.56C49.58 28.86 49.6 28.14 49.6 27.4V17.52H40.6C39.76 17.52 38.68 17.56 38.12 17.6V14.8ZM37.88 25.66C38.56 25.72 39.46 25.78 40.36 25.78H51.18V28.42H40.44C39.66 28.42 38.54 28.46 37.88 28.54V25.66ZM58.42 19.74C59.16 19.8 60.6 19.88 61.64 19.88C64 19.88 70.6 19.88 72.38 19.88C73.32 19.88 74.2 19.78 74.74 19.74V22.9C74.26 22.88 73.24 22.78 72.4 22.78C70.58 22.78 64 22.78 61.64 22.78C60.52 22.78 59.18 22.84 58.42 22.9V19.74ZM82.0239 13.8C83.4039 14.74 86.0039 16.82 87.1839 18.04L85.1439 20.12C84.1039 19 81.5839 16.82 80.1239 15.82L82.0239 13.8ZM79.5039 27.12C82.6439 26.68 85.2239 25.66 87.1639 24.52C90.5839 22.48 93.1839 19.44 94.4639 16.74L96.0039 19.54C94.5039 22.26 91.8439 25.02 88.6239 26.96C86.5839 28.18 84.0039 29.28 81.2039 29.76L79.5039 27.12ZM107.004 20.4H118.024V22.58H107.004V20.4ZM109.064 15.48H117.524V17.66H109.064V15.48ZM111.404 12.02H113.744V30.8H111.404V12.02ZM110.764 21.52L112.624 22.08C111.484 25.26 109.584 28.22 107.284 29.9C106.924 29.32 106.204 28.48 105.684 28.06C107.844 26.72 109.784 24.12 110.764 21.52ZM114.504 21.62C115.324 23.98 116.924 26.48 118.584 27.88C118.044 28.3 117.244 29.14 116.844 29.76C115.184 28.02 113.704 25 112.824 22.14L114.504 21.62ZM108.384 13L110.564 13.38C110.184 15.96 109.404 18.5 108.364 20.1C107.944 19.76 107.004 19.16 106.464 18.9C107.464 17.48 108.064 15.24 108.384 13ZM99.6239 15.76H106.844V17.96H99.6239V15.76ZM102.224 12.02H104.564V30.8H102.224V12.02ZM102.204 17.4L103.484 17.9C102.924 21.22 101.724 25.12 100.344 27.2C100.104 26.5 99.5839 25.4 99.1839 24.76C100.524 23.08 101.684 19.92 102.204 17.4ZM104.464 18.42C104.924 19 106.584 21.6 106.924 22.2L105.544 23.82C105.104 22.62 103.964 20.28 103.404 19.26L104.464 18.42ZM134.664 13.34L136.264 12.02C137.164 12.64 138.344 13.58 138.904 14.24L137.224 15.68C136.704 15 135.584 14 134.664 13.34ZM121.424 15.42H139.424V17.76H121.424V15.42ZM122.164 20.06H130.824V22.38H122.164V20.06ZM125.204 21.38H127.604V28.16H125.204V21.38ZM121.404 27.82C123.824 27.46 127.744 26.78 131.344 26.1L131.524 28.24C128.224 28.96 124.684 29.7 122.084 30.24L121.404 27.82ZM131.244 12.1H133.824C133.644 20.32 135.164 28.3 137.064 28.3C137.504 28.3 137.724 27.2 137.844 24.68C138.384 25.24 139.264 25.82 139.944 26.06C139.584 29.88 138.764 30.82 136.864 30.82C132.524 30.82 131.264 21.36 131.244 12.1ZM143.844 27.86C147.424 27.76 152.984 27.56 158.024 27.34L157.944 29.54C153.044 29.82 147.764 30.06 144.164 30.2L143.844 27.86ZM143.744 21.9H160.384V24.14H143.744V21.9ZM147.304 18.06H156.684V20.26H147.304V18.06ZM148.644 23.36L151.384 24.12C150.444 26 149.364 28.08 148.464 29.42L146.364 28.72C147.184 27.26 148.144 25.04 148.644 23.36ZM153.604 25.42L155.724 24.32C157.524 25.86 159.384 27.96 160.304 29.48L158.084 30.82C157.244 29.3 155.324 27.02 153.604 25.42ZM151.984 14.36C150.364 16.64 147.244 19.2 143.924 20.78C143.644 20.2 143.004 19.3 142.504 18.78C145.924 17.28 149.124 14.42 150.604 12.06H153.144C155.264 15 158.444 17.28 161.624 18.42C161.044 19.02 160.504 19.88 160.064 20.6C157.064 19.2 153.684 16.68 151.984 14.36ZM171.784 27.88H183.184V30.24H171.784V27.88ZM172.604 18.22H182.704V20.52H172.604V18.22ZM176.424 12.22H178.884V29.02H176.424V12.22ZM164.604 15.72H171.164V17.9H164.604V15.72ZM167.464 22.56L169.844 19.72V30.82H167.464V22.56ZM167.464 12.04H169.844V16.74H167.464V12.04ZM169.604 20.4C170.304 20.88 172.564 22.88 173.104 23.38L171.644 25.32C170.864 24.28 169.184 22.44 168.284 21.56L169.604 20.4ZM170.284 15.72H170.764L171.184 15.64L172.524 16.52C171.004 20.42 167.984 23.92 165.004 25.8C164.784 25.16 164.224 23.98 163.864 23.52C166.584 22.04 169.224 19.1 170.284 16.16V15.72Z" fill="#101940"/>
</svg>
