<svg width="199" height="40" viewBox="0 0 199 40" fill="none" xmlns="http://www.w3.org/2000/svg">
<path fill-rule="evenodd" clip-rule="evenodd" d="M15.9467 1.07245C15.6868 0.0754634 14.2713 0.0754567 14.0114 1.07244L6.82755 28.6295H3.5488C3.09628 28.6295 2.70015 28.9334 2.58293 29.3704L0.0699441 38.741C-0.100397 39.3761 0.378198 40 1.03581 40H28.9698C29.6126 40 30.0884 39.4024 29.9444 38.776L27.7904 29.4054C27.686 28.9513 27.2818 28.6295 26.8159 28.6295H23.1305L15.9467 1.07245Z" fill="white"/>
<path d="M53.12 14.8C53.88 14.88 54.9 14.94 55.6 14.94H65.68C66.26 14.94 67.08 14.9 67.42 14.88C67.4 15.36 67.36 16.14 67.36 16.74V27.1C67.36 27.8 67.42 28.84 67.46 29.46H64.56C64.58 28.86 64.6 28.14 64.6 27.4V17.52H55.6C54.76 17.52 53.68 17.56 53.12 17.6V14.8ZM52.88 25.66C53.56 25.72 54.46 25.78 55.36 25.78H66.18V28.42H55.44C54.66 28.42 53.54 28.46 52.88 28.54V25.66ZM73.42 19.74C74.16 19.8 75.6 19.88 76.64 19.88C79 19.88 85.6 19.88 87.38 19.88C88.32 19.88 89.2 19.78 89.74 19.74V22.9C89.26 22.88 88.24 22.78 87.4 22.78C85.58 22.78 79 22.78 76.64 22.78C75.52 22.78 74.18 22.84 73.42 22.9V19.74ZM97.0239 13.8C98.4039 14.74 101.004 16.82 102.184 18.04L100.144 20.12C99.1039 19 96.5839 16.82 95.1239 15.82L97.0239 13.8ZM94.5039 27.12C97.6439 26.68 100.224 25.66 102.164 24.52C105.584 22.48 108.184 19.44 109.464 16.74L111.004 19.54C109.504 22.26 106.844 25.02 103.624 26.96C101.584 28.18 99.0039 29.28 96.2039 29.76L94.5039 27.12ZM122.004 20.4H133.024V22.58H122.004V20.4ZM124.064 15.48H132.524V17.66H124.064V15.48ZM126.404 12.02H128.744V30.8H126.404V12.02ZM125.764 21.52L127.624 22.08C126.484 25.26 124.584 28.22 122.284 29.9C121.924 29.32 121.204 28.48 120.684 28.06C122.844 26.72 124.784 24.12 125.764 21.52ZM129.504 21.62C130.324 23.98 131.924 26.48 133.584 27.88C133.044 28.3 132.244 29.14 131.844 29.76C130.184 28.02 128.704 25 127.824 22.14L129.504 21.62ZM123.384 13L125.564 13.38C125.184 15.96 124.404 18.5 123.364 20.1C122.944 19.76 122.004 19.16 121.464 18.9C122.464 17.48 123.064 15.24 123.384 13ZM114.624 15.76H121.844V17.96H114.624V15.76ZM117.224 12.02H119.564V30.8H117.224V12.02ZM117.204 17.4L118.484 17.9C117.924 21.22 116.724 25.12 115.344 27.2C115.104 26.5 114.584 25.4 114.184 24.76C115.524 23.08 116.684 19.92 117.204 17.4ZM119.464 18.42C119.924 19 121.584 21.6 121.924 22.2L120.544 23.82C120.104 22.62 118.964 20.28 118.404 19.26L119.464 18.42ZM149.664 13.34L151.264 12.02C152.164 12.64 153.344 13.58 153.904 14.24L152.224 15.68C151.704 15 150.584 14 149.664 13.34ZM136.424 15.42H154.424V17.76H136.424V15.42ZM137.164 20.06H145.824V22.38H137.164V20.06ZM140.204 21.38H142.604V28.16H140.204V21.38ZM136.404 27.82C138.824 27.46 142.744 26.78 146.344 26.1L146.524 28.24C143.224 28.96 139.684 29.7 137.084 30.24L136.404 27.82ZM146.244 12.1H148.824C148.644 20.32 150.164 28.3 152.064 28.3C152.504 28.3 152.724 27.2 152.844 24.68C153.384 25.24 154.264 25.82 154.944 26.06C154.584 29.88 153.764 30.82 151.864 30.82C147.524 30.82 146.264 21.36 146.244 12.1ZM158.844 27.86C162.424 27.76 167.984 27.56 173.024 27.34L172.944 29.54C168.044 29.82 162.764 30.06 159.164 30.2L158.844 27.86ZM158.744 21.9H175.384V24.14H158.744V21.9ZM162.304 18.06H171.684V20.26H162.304V18.06ZM163.644 23.36L166.384 24.12C165.444 26 164.364 28.08 163.464 29.42L161.364 28.72C162.184 27.26 163.144 25.04 163.644 23.36ZM168.604 25.42L170.724 24.32C172.524 25.86 174.384 27.96 175.304 29.48L173.084 30.82C172.244 29.3 170.324 27.02 168.604 25.42ZM166.984 14.36C165.364 16.64 162.244 19.2 158.924 20.78C158.644 20.2 158.004 19.3 157.504 18.78C160.924 17.28 164.124 14.42 165.604 12.06H168.144C170.264 15 173.444 17.28 176.624 18.42C176.044 19.02 175.504 19.88 175.064 20.6C172.064 19.2 168.684 16.68 166.984 14.36ZM186.784 27.88H198.184V30.24H186.784V27.88ZM187.604 18.22H197.704V20.52H187.604V18.22ZM191.424 12.22H193.884V29.02H191.424V12.22ZM179.604 15.72H186.164V17.9H179.604V15.72ZM182.464 22.56L184.844 19.72V30.82H182.464V22.56ZM182.464 12.04H184.844V16.74H182.464V12.04ZM184.604 20.4C185.304 20.88 187.564 22.88 188.104 23.38L186.644 25.32C185.864 24.28 184.184 22.44 183.284 21.56L184.604 20.4ZM185.284 15.72H185.764L186.184 15.64L187.524 16.52C186.004 20.42 182.984 23.92 180.004 25.8C179.784 25.16 179.224 23.98 178.864 23.52C181.584 22.04 184.224 19.1 185.284 16.16V15.72Z" fill="blue"/>
</svg>
