<svg width="111" height="136" viewBox="0 0 111 136" fill="none" xmlns="http://www.w3.org/2000/svg">
<path d="M33.4647 59.7512L72.9135 83.8553C73.266 84.0706 73.4272 84.4987 73.3045 84.8934L63.2598 117.197C63.0859 117.756 62.4337 118.002 61.9342 117.697L8.50785 85.0525C8.00831 84.7472 7.92735 84.0532 8.34329 83.6417L32.3654 59.8788C32.6589 59.5885 33.1122 59.5359 33.4647 59.7512Z" fill="white" stroke="#797979" stroke-width="0.2"/>
<path d="M86.8734 18.0522L58.6805 105.488C58.5019 106.042 57.8539 106.282 57.3576 105.979L20.9906 83.7581C20.4944 83.4549 20.4105 82.7671 20.8194 82.354L85.3793 17.1393C86.0454 16.4664 87.1643 17.15 86.8734 18.0522Z" fill="white" stroke="#888888" stroke-width="0.2"/>
</svg>
